<mxfile host="65bd71144e">
    <diagram id="nXWWgEw-lm5rsyjL4Rfr" name="Página-1">
        <mxGraphModel dx="808" dy="528" grid="1" gridSize="10" guides="1" tooltips="1" connect="1" arrows="1" fold="1" page="1" pageScale="1" pageWidth="827" pageHeight="1169" math="0" shadow="0">
            <root>
                <mxCell id="0"/>
                <mxCell id="1" parent="0"/>
                <mxCell id="2" value="TABLA CON COMPONENTES  T -&gt; COMPARABLE" style="swimlane;childLayout=stackLayout;resizeParent=1;resizeParentMax=0;startSize=20;" parent="1" vertex="1">
                    <mxGeometry x="230" y="20" width="360" height="480" as="geometry"/>
                </mxCell>
                <mxCell id="3" value="PASO 1" style="swimlane;startSize=20;" parent="2" vertex="1">
                    <mxGeometry y="20" width="120" height="460" as="geometry"/>
                </mxCell>
                <mxCell id="11" value="-CREAMOS UNA LISTA PARA HACER UNA TABLA" style="text;html=1;strokeColor=none;fillColor=none;align=center;verticalAlign=middle;whiteSpace=wrap;rounded=0;" parent="3" vertex="1">
                    <mxGeometry y="20" width="120" height="440" as="geometry"/>
                </mxCell>
                <mxCell id="4" value="PASO 2" style="swimlane;startSize=20;" parent="2" vertex="1">
                    <mxGeometry x="120" y="20" width="120" height="460" as="geometry"/>
                </mxCell>
                <mxCell id="5" value="PASO 3" style="swimlane;startSize=20;" parent="2" vertex="1">
                    <mxGeometry x="240" y="20" width="120" height="460" as="geometry"/>
                </mxCell>
                <mxCell id="13" value="-FUNCION PARA ORDENAR LA LISTA MEDIANTE INSERCIÓN DICOTÓMICA&lt;br&gt;(tenemos en cuenta la posición de los datos introducidos)" style="text;html=1;strokeColor=none;fillColor=none;align=center;verticalAlign=middle;whiteSpace=wrap;rounded=0;" vertex="1" parent="5">
                    <mxGeometry y="20" width="120" height="440" as="geometry"/>
                </mxCell>
                <mxCell id="12" value="-TABLA ALEATORIA PARA CALCULAR EL RESULTADO&lt;br&gt;(datos del 1 al 50)" style="text;html=1;strokeColor=none;fillColor=none;align=center;verticalAlign=middle;whiteSpace=wrap;rounded=0;" vertex="1" parent="1">
                    <mxGeometry x="350" y="70" width="120" height="430" as="geometry"/>
                </mxCell>
                <mxCell id="18" value="" style="shape=flexArrow;endArrow=classic;html=1;" edge="1" parent="1">
                    <mxGeometry width="50" height="50" relative="1" as="geometry">
                        <mxPoint x="610" y="320" as="sourcePoint"/>
                        <mxPoint x="680" y="320" as="targetPoint"/>
                    </mxGeometry>
                </mxCell>
                <mxCell id="19" value="" style="rounded=0;whiteSpace=wrap;html=1;" vertex="1" parent="1">
                    <mxGeometry x="700" y="290" width="120" height="60" as="geometry"/>
                </mxCell>
                <mxCell id="20" value="Lista Ordenada según el algoritmo" style="text;html=1;strokeColor=none;fillColor=none;align=center;verticalAlign=middle;whiteSpace=wrap;rounded=0;" vertex="1" parent="1">
                    <mxGeometry x="730" y="305" width="60" height="30" as="geometry"/>
                </mxCell>
            </root>
        </mxGraphModel>
    </diagram>
</mxfile>